#N canvas 44 29 1366 723 10;
#X obj 86 144 soundfiler;
#X obj 88 57 openpanel;
#X msg 89 105 read -resize \$1 source;
#X obj 35 455 tabplay~ source;
#X floatatom 27 193 10 0 0 3 num_of_samples - -;
#X floatatom 124 193 5 0 0 3 samplerate_［Hz］ - -;
#X floatatom 224 195 5 0 0 3 headersize_[Byte] - -;
#X obj 168 160 unpack 0 0 0 0 s;
#X floatatom 330 195 5 0 0 3 num_of_channels - -;
#X floatatom 428 195 5 0 0 3 BPS - -;
#X symbolatom 468 194 1 0 0 3 endianness - -;
#X floatatom 676 440 10 0 0 2 Gap_length_[ms] - -;
#X floatatom 606 285 5 0 0 2 Gap_start_time_[ms] - -;
#X obj 286 268 bng 15 250 50 0 empty empty empty 17 7 0 10 -262144
-1 -1;
#X obj 470 583 *~;
#X obj 566 409 delay;
#X msg 585 515 0;
#X obj 629 517 delay;
#X msg 629 552 1;
#X obj 586 553 bng 15 250 50 0 empty empty empty 17 7 0 10 -262144
-1 -1;
#X obj 629 589 bng 15 250 50 0 empty empty empty 17 7 0 10 -262144
-1 -1;
#X obj 598 441 bng 15 250 50 0 empty empty empty 17 7 0 10 -262144
-1 -1;
#X obj 107 524 *~;
#X obj 156 450 vline~;
#X obj 605 245 + 500;
#X msg 156 419 1 500 \, 0 500 4500;
#X obj 604 201 random 3000;
#X obj 526 618 tabwrite~ test;
#N canvas 0 50 450 250 (subpatch) 0;
#X array test 220500 float 2;
#X coords 0 1 220500 -1 1000 140 1 0 0;
#X restore 15 865 graph;
#X obj 1158 989 bng 60 250 50 0 empty empty play_test 10 30 0 20 -262144
-1 -1;
#X obj 1208 709 tabplay~ test;
#X obj 1285 751 bng 15 250 50 0 empty empty empty 17 7 0 10 -262144
-1 -1;
#N canvas 0 50 450 250 (subpatch) 0;
#X array original 220500 float 2;
#X coords 0 1 220500 -1 1000 140 1 0 0;
#X restore 17 656 graph;
#X obj 131 581 tabwrite~ original;
#N canvas 0 50 450 250 (subpatch) 0;
#X array source 4.0572e+06 float 2;
#X coords 0 1 4.0572e+06 -1 200 140 1;
#X restore 290 21 graph;
#X obj 21 798 hsl 1000 15 0 5000 0 0 empty empty empty -2 -8 0 10 -262144
-86277 -262144 16983 1;
#X obj 524 256 bng 15 250 50 0 empty empty empty 17 7 0 10 -262144
-1 -1;
#X obj 455 537 tabplay~ original;
#X msg 35 417 44100 220500;
#X obj 1233 985 output~;
#X msg 1285 771 finished;
#X obj 1285 807 print;
#X obj 854 19 r percept;
#X obj 942 149 > 0;
#X msg 866 218 1;
#X msg 953 254 0;
#X obj 955 301 s count_impercept;
#X obj 795 308 s count_percept;
#X obj 944 188 select 1;
#X obj 748 199 select 0;
#X obj 833 250 + 1;
#X floatatom 1188 464 5 0 0 0 - - -;
#X obj 854 47 bng 15 250 50 0 empty empty empty 17 7 0 10 -262144 -1
-1;
#X floatatom 795 281 5 0 0 0 - - -;
#X obj 916 126 int;
#X obj 943 58 r count_impercept;
#X obj 952 442 > 0;
#X msg 876 511 1;
#X msg 979 552 0;
#X obj 954 481 select 1;
#X obj 842 471 select 0;
#X obj 843 543 + 1;
#X obj 859 375 bng 15 250 50 0 empty empty empty 17 7 0 10 -262144
-1 -1;
#X floatatom 805 574 5 0 0 0 - - -;
#X obj 951 405 int;
#X obj 856 345 r impercept;
#X obj 805 601 s count_impercept;
#X obj 981 599 s count_percept;
#X obj 1121 422 r count_impercept;
#X obj 795 250 int 1;
#X obj 805 543 int 1;
#X obj 1121 474 == 3;
#X obj 1121 517 select 1;
#X obj 1211 519 r DeltaGap;
#X obj 1127 564 int;
#X obj 732 526 r GapLength;
#X obj 718 484 r DeltaGap;
#X obj 1176 566 * 2;
#X obj 1131 602 s DeltaGap;
#X msg 1217 556 0;
#X obj 1218 597 s count_impercept;
#X floatatom 1162 81 5 0 0 0 - - -;
#X obj 1102 98 == 3;
#X obj 1102 141 select 1;
#X obj 1192 143 r DeltaGap;
#X obj 1108 188 int;
#X obj 1112 224 s DeltaGap;
#X msg 1198 180 0;
#X obj 1105 50 r count_percept;
#X obj 1200 227 s count_percept;
#X obj 1157 190 / 2;
#X obj 684 109 s percept;
#X obj 594 106 s impercept;
#X obj 1056 680 s reset;
#X obj 1074 862 bng 15 250 50 0 empty empty parameter_reset 17 7 0
10 -262144 -1 -1;
#X obj 1135 914 hradio 60 1 1 2 empty empty impercept_<-->_percept
-90 -15 0 20 -262144 -1 -1 0;
#X obj 657 4 r select_end;
#X obj 655 66 select 0 1;
#X obj 1128 683 s select_end;
#X obj 945 29 r count_percept;
#X obj 723 239 bng 15 250 50 0 empty empty empty 17 7 0 10 -262144
-1 -1;
#X obj 991 217 bng 15 250 50 0 empty empty empty 17 7 0 10 -262144
-1 -1;
#X floatatom 982 122 5 0 0 0 - - -;
#X obj 975 90 print;
#X floatatom 848 147 5 0 0 0 - - -;
#X obj 795 414 r count_impercept;
#X obj 1030 356 r count_percept;
#X obj 1179 371 s DeltaGap;
#X obj 1261 916 bng 60 250 50 0 empty empty next 10 30 0 20 -262144
-1 -1;
#X obj 657 39 int;
#X obj 525 143 r select_end;
#X obj 1178 265 r reset;
#X obj 1228 349 s GapLength;
#X msg 1228 318 100;
#X msg 1181 335 10;
#X floatatom 700 578 5 0 0 0 - - -;
#X obj 698 606 s NextGapLength;
#X obj 678 389 r NextGapLength;
#X obj 655 358 r GapLength;
#X msg 1047 187 -1;
#X obj 1034 223 s UpDown;
#X obj 1076 601 s UpDown;
#X msg 1089 565 1;
#X obj 687 462 r UpDown;
#X obj 697 515 *;
#X obj 697 541 +;
#X floatatom 743 507 5 0 0 0 - - -;
#X obj 1073 328 s count_percept;
#X obj 1074 303 s count_impercept;
#X msg 1103 274 0;
#X obj 977 829 s responce;
#X obj 687 27 r responce;
#X obj 88 25 r openpanel;
#X obj 1199 862 bng 15 250 50 0 empty empty open_panel 17 7 0 10 -262144
-1 -1;
#X obj 1078 736 s openpanel;
#X obj 1023 390 r UpDown;
#X obj 1014 457 int;
#X obj 1050 456 + 1;
#X floatatom 1030 490 5 0 0 0 - - -;
#X obj 1017 428 bng 15 250 50 0 empty empty empty 17 7 0 10 -262144
-1 -1;
#X obj 328 272 r NextGapLength;
#X obj 316 362 int;
#X obj 358 365 +;
#X obj 1029 547 s finish;
#X obj 316 427 / 5;
#X floatatom 314 458 5 0 0 0 - - -;
#X obj 352 394 r finish;
#X obj 305 402 spigot;
#X obj 391 311 r reset;
#X msg 391 332 0;
#X msg 1051 423 1;
#X floatatom 269 386 5 0 0 0 - - -;
#X obj 303 324 bng 15 250 50 0 empty empty empty 17 7 0 10 -262144
-1 -1;
#X obj 1030 516 == 6;
#X obj 311 492 s GapLimit;
#X obj 1033 952 r GapLimit;
#X obj 1090 1060 nbx 5 40 -1e+37 1e+37 0 0 empty empty Gap_Limit_[ms]
0 -8 0 30 -262144 -1 -1 0 256;
#X connect 0 0 4 0;
#X connect 0 0 13 0;
#X connect 0 1 7 0;
#X connect 1 0 2 0;
#X connect 2 0 0 0;
#X connect 3 0 22 0;
#X connect 7 0 5 0;
#X connect 7 1 6 0;
#X connect 7 2 8 0;
#X connect 7 3 9 0;
#X connect 7 4 10 0;
#X connect 11 0 17 1;
#X connect 12 0 35 0;
#X connect 12 0 15 1;
#X connect 13 0 25 0;
#X connect 13 0 38 0;
#X connect 13 0 33 0;
#X connect 14 0 27 0;
#X connect 15 0 16 0;
#X connect 15 0 21 0;
#X connect 16 0 14 1;
#X connect 16 0 19 0;
#X connect 17 0 18 0;
#X connect 18 0 14 1;
#X connect 18 0 20 0;
#X connect 21 0 17 0;
#X connect 22 0 33 0;
#X connect 23 0 22 1;
#X connect 24 0 12 0;
#X connect 25 0 23 0;
#X connect 26 0 24 0;
#X connect 29 0 30 0;
#X connect 30 0 39 0;
#X connect 30 0 39 1;
#X connect 30 1 31 0;
#X connect 31 0 40 0;
#X connect 36 0 37 0;
#X connect 36 0 15 0;
#X connect 36 0 27 0;
#X connect 37 0 14 0;
#X connect 38 0 3 0;
#X connect 40 0 41 0;
#X connect 42 0 52 0;
#X connect 43 0 48 0;
#X connect 43 0 49 0;
#X connect 44 0 69 1;
#X connect 45 0 46 0;
#X connect 48 0 44 0;
#X connect 48 0 45 0;
#X connect 48 0 101 0;
#X connect 49 0 69 0;
#X connect 49 0 100 0;
#X connect 50 0 69 1;
#X connect 52 0 54 0;
#X connect 53 0 47 0;
#X connect 54 0 43 0;
#X connect 55 0 102 0;
#X connect 56 0 59 0;
#X connect 56 0 60 0;
#X connect 57 0 70 1;
#X connect 58 0 67 0;
#X connect 59 0 57 0;
#X connect 59 0 58 0;
#X connect 60 0 70 0;
#X connect 61 0 70 1;
#X connect 62 0 64 0;
#X connect 63 0 66 0;
#X connect 64 0 56 0;
#X connect 65 0 62 0;
#X connect 68 0 51 0;
#X connect 68 0 71 0;
#X connect 69 0 50 0;
#X connect 69 0 53 0;
#X connect 70 0 61 0;
#X connect 70 0 63 0;
#X connect 71 0 72 0;
#X connect 72 0 74 0;
#X connect 72 0 79 0;
#X connect 72 0 122 0;
#X connect 73 0 74 1;
#X connect 74 0 78 0;
#X connect 74 0 77 0;
#X connect 75 0 125 1;
#X connect 76 0 124 1;
#X connect 76 0 126 0;
#X connect 77 0 74 1;
#X connect 79 0 80 0;
#X connect 82 0 83 0;
#X connect 83 0 85 0;
#X connect 83 0 87 0;
#X connect 83 0 119 0;
#X connect 84 0 85 1;
#X connect 85 0 86 0;
#X connect 85 0 90 0;
#X connect 87 0 89 0;
#X connect 88 0 81 0;
#X connect 88 0 82 0;
#X connect 90 0 85 1;
#X connect 94 0 93 0;
#X connect 95 0 130 0;
#X connect 96 0 109 0;
#X connect 97 0 92 0;
#X connect 97 1 91 0;
#X connect 99 0 104 0;
#X connect 102 0 54 1;
#X connect 104 0 50 0;
#X connect 105 0 61 0;
#X connect 106 0 64 1;
#X connect 108 0 98 0;
#X connect 109 0 97 0;
#X connect 110 0 36 0;
#X connect 110 0 26 0;
#X connect 111 0 114 0;
#X connect 111 0 113 0;
#X connect 111 0 129 0;
#X connect 111 0 150 0;
#X connect 113 0 112 0;
#X connect 114 0 107 0;
#X connect 115 0 116 0;
#X connect 117 0 11 0;
#X connect 118 0 11 0;
#X connect 119 0 120 0;
#X connect 122 0 121 0;
#X connect 123 0 124 0;
#X connect 124 0 125 0;
#X connect 125 0 115 0;
#X connect 129 0 128 0;
#X connect 129 0 127 0;
#X connect 131 0 109 1;
#X connect 132 0 1 0;
#X connect 133 0 134 0;
#X connect 135 0 139 0;
#X connect 136 0 137 0;
#X connect 136 0 138 0;
#X connect 137 0 136 1;
#X connect 138 0 153 0;
#X connect 139 0 136 0;
#X connect 140 0 142 1;
#X connect 140 0 152 0;
#X connect 141 0 142 0;
#X connect 141 0 147 0;
#X connect 141 0 151 0;
#X connect 142 0 141 1;
#X connect 144 0 145 0;
#X connect 145 0 154 0;
#X connect 146 0 147 1;
#X connect 147 0 144 0;
#X connect 148 0 149 0;
#X connect 149 0 141 1;
#X connect 149 0 154 0;
#X connect 150 0 136 1;
#X connect 152 0 141 0;
#X connect 153 0 143 0;
#X connect 155 0 156 0;
