#N canvas 127 114 1686 1040 10;
#X obj 86 144 soundfiler;
#X obj 88 57 openpanel;
#X obj 90 16 bng 15 250 50 0 empty empty empty 17 7 0 10 -262144 -1
-1;
#X msg 89 105 read -resize \$1 source;
#X obj 35 455 tabplay~ source;
#X floatatom 27 193 10 0 0 3 num_of_samples - -;
#X floatatom 124 193 5 0 0 3 samplerate_［Hz］ - -;
#X floatatom 224 195 5 0 0 3 headersize_[Byte] - -;
#X obj 168 160 unpack 0 0 0 0 s;
#X floatatom 330 195 5 0 0 3 num_of_channels - -;
#X floatatom 428 195 5 0 0 3 BPS - -;
#X symbolatom 468 194 1 0 0 3 endianness - -;
#X floatatom 762 512 10 0 0 2 Gap_length_[ms] - -;
#X floatatom 836 150 5 0 0 2 Gap_start_time_[ms] - -;
#X floatatom 1624 402 5 0 0 2 loudness - -;
#X obj 286 268 bng 15 250 50 0 empty empty empty 17 7 0 10 -262144
-1 -1;
#X obj 470 583 *~;
#X obj 871 513 delay;
#X msg 936 536 0;
#X obj 871 597 delay;
#X msg 973 626 1;
#X obj 906 569 bng 15 250 50 0 empty empty empty 17 7 0 10 -262144
-1 -1;
#X obj 1052 641 bng 15 250 50 0 empty empty empty 17 7 0 10 -262144
-1 -1;
#X obj 870 561 bng 15 250 50 0 empty empty empty 17 7 0 10 -262144
-1 -1;
#X obj 107 524 *~;
#X obj 156 450 vline~;
#X obj 835 110 + 500;
#X msg 156 419 1 500 \, 0 500 4500;
#X obj 834 66 random 3000;
#X obj 526 618 tabwrite~ test;
#N canvas 0 50 450 250 (subpatch) 0;
#X array test 220500 float 2;
#X coords 0 1 220500 -1 1000 140 1 0 0;
#X restore 15 865 graph;
#X obj 1314 37 bng 15 250 50 0 empty empty empty 17 7 0 10 -262144
-1 -1;
#X obj 1312 95 tabplay~ test;
#X obj 1388 365 bng 15 250 50 0 empty empty empty 17 7 0 10 -262144
-1 -1;
#N canvas 0 50 450 250 (subpatch) 0;
#X array original 220500 float 2;
#X coords 0 1 220500 -1 1000 140 1 0 0;
#X restore 17 656 graph;
#X obj 285 573 tabwrite~ original;
#N canvas 0 50 450 250 (subpatch) 0;
#X array source 4.0572e+06 float 2;
#X coords 0 1 4.0572e+06 -1 200 140 1;
#X restore 290 21 graph;
#X obj 21 798 hsl 1000 15 0 5000 0 0 empty empty empty -2 -8 0 10 -262144
-86277 -262144 21379 1;
#X obj 524 256 bng 15 250 50 0 empty empty empty 17 7 0 10 -262144
-1 -1;
#X obj 455 537 tabplay~ original;
#X msg 35 417 44100 220500;
#X obj 749 594 s GapLength;
#X obj 1366 477 bng 15 250 50 0 empty empty empty 17 7 0 10 -262144
-1 -1;
#X obj 1370 506 s next;
#X obj 1423 39 r next;
#X obj 1423 90 int;
#X obj 1423 143 trigger f f f;
#X obj 1467 90 + 1;
#X obj 1316 507 s reset;
#X obj 1316 475 bng 15 250 50 0 empty empty empty 17 7 0 10 -262144
-1 -1;
#X obj 1478 39 r reset;
#X msg 1483 63 0;
#X obj 1423 236 spigot;
#X obj 1454 186 < 10;
#X obj 1480 214 select 0;
#X obj 1480 244 s end;
#X obj 1558 183 > 0;
#X obj 1559 213 select 1;
#X obj 1560 249 s write;
#X obj 1432 285 trigger b f;
#X obj 1425 331 s rand;
#X obj 1484 330 s count;
#X obj 834 37 r rand;
#X obj 1289 220 output~;
#X msg 1388 385 finished;
#X obj 1388 421 print;
#X msg 913 341 100;
#X obj 908 208 bng 15 250 50 0 empty empty empty 17 7 0 10 -262144
-1 -1;
#X obj 746 50 r t_responce;
#X obj 715 465 +;
#X obj 747 186 -;
#X obj 713 404 bng 15 250 50 0 empty empty empty 17 7 0 10 -262144
-1 -1;
#X msg 711 429 -10;
#X obj 768 400 bng 15 250 50 0 empty empty empty 17 7 0 10 -262144
-1 -1;
#X msg 750 428 10;
#X msg 1278 600 3000;
#X obj 1283 632 s t_responce;
#X floatatom 737 291 5 0 0 0 - - -;
#X obj 802 338 >= 1000;
#X obj 712 338 < 1000;
#X obj 749 252 abs;
#X obj 1094 454 >= 1000;
#X obj 1091 490 bng 15 250 50 0 empty empty empty 17 7 0 10 -262144
-1 -1;
#X floatatom 1121 488 5 0 0 0 - - -;
#X msg 1093 408 1001;
#X obj 802 372 select 1;
#X obj 713 368 select 1;
#X obj 764 464 int;
#X obj 1270 724 metro;
#X text 944 341 initial Gap length [ms];
#X connect 0 0 5 0;
#X connect 0 1 8 0;
#X connect 1 0 3 0;
#X connect 2 0 1 0;
#X connect 3 0 0 0;
#X connect 4 0 24 0;
#X connect 8 0 6 0;
#X connect 8 1 7 0;
#X connect 8 2 9 0;
#X connect 8 3 10 0;
#X connect 8 4 11 0;
#X connect 12 0 19 1;
#X connect 12 0 41 0;
#X connect 13 0 37 0;
#X connect 13 0 17 1;
#X connect 13 0 70 1;
#X connect 15 0 27 0;
#X connect 15 0 40 0;
#X connect 15 0 35 0;
#X connect 16 0 29 0;
#X connect 17 0 18 0;
#X connect 17 0 23 0;
#X connect 18 0 16 1;
#X connect 18 0 21 0;
#X connect 19 0 20 0;
#X connect 20 0 16 1;
#X connect 20 0 22 0;
#X connect 23 0 19 0;
#X connect 24 0 35 0;
#X connect 25 0 24 1;
#X connect 26 0 13 0;
#X connect 27 0 25 0;
#X connect 28 0 26 0;
#X connect 31 0 32 0;
#X connect 32 0 63 0;
#X connect 32 0 63 1;
#X connect 32 1 33 0;
#X connect 33 0 64 0;
#X connect 38 0 39 0;
#X connect 38 0 17 0;
#X connect 38 0 29 0;
#X connect 39 0 16 0;
#X connect 40 0 4 0;
#X connect 42 0 43 0;
#X connect 44 0 45 0;
#X connect 45 0 46 0;
#X connect 45 0 47 0;
#X connect 46 0 52 0;
#X connect 46 1 53 0;
#X connect 46 2 56 0;
#X connect 47 0 45 1;
#X connect 49 0 48 0;
#X connect 50 0 51 0;
#X connect 51 0 45 1;
#X connect 52 0 59 0;
#X connect 53 0 52 1;
#X connect 53 0 54 0;
#X connect 54 0 55 0;
#X connect 56 0 57 0;
#X connect 57 0 58 0;
#X connect 59 0 60 0;
#X connect 59 1 61 0;
#X connect 62 0 28 0;
#X connect 64 0 65 0;
#X connect 66 0 87 0;
#X connect 67 0 66 0;
#X connect 68 0 70 0;
#X connect 69 0 87 0;
#X connect 70 0 80 0;
#X connect 71 0 72 0;
#X connect 72 0 69 0;
#X connect 73 0 74 0;
#X connect 74 0 69 0;
#X connect 75 0 76 0;
#X connect 77 0 79 0;
#X connect 77 0 78 0;
#X connect 78 0 85 0;
#X connect 79 0 86 0;
#X connect 80 0 77 0;
#X connect 81 0 82 0;
#X connect 81 0 83 0;
#X connect 84 0 81 0;
#X connect 85 0 73 0;
#X connect 86 0 71 0;
#X connect 87 0 12 0;
#X connect 87 0 69 1;
