#N canvas 1351 481 359 383 10;
#X obj 150 121 bng 15 250 50 0 empty empty 実験開始 17 7 0 10 -262144
-1 -1;
#X floatatom 143 155 5 0 0 1 回目 - -;
#X obj 282 124 s start;
#X obj 156 248 bng 15 250 50 0 empty empty next 17 7 0 10 -262144 -1
-1;
#X obj 141 203 hradio 30 1 0 2 empty empty 聞こえない↔聞こえる
-20 -8 0 10 -262144 -260097 -1 0;
#X obj 284 230 s ans;
#X obj 162 290 s next;
#X obj 37 121 r count;
#X connect 0 0 2 0;
#X connect 3 0 6 0;
#X connect 4 0 5 0;
#X connect 7 0 1 0;
#X coords 0 -1 1 1 160 180 1 100 100;
